<?xml version="1.0"?>
<svg xmlns="http://www.w3.org/2000/svg" xmlns:xlink="http://www.w3.org/1999/xlink" xmlns:svgjs="http://svgjs.com/svgjs" version="1.1" width="512" height="512" x="0" y="0" viewBox="0 0 512 512" style="enable-background:new 0 0 512 512" xml:space="preserve" class=""><g>
<g xmlns="http://www.w3.org/2000/svg">
	<g>
		<g>
			<path d="M366.292,215.99L241.417,325.781c-0.167,0.146-0.333,0.292-0.479,0.448c-4.042,4.021-6.271,9.385-6.271,15.104     c0,11.76,9.563,21.333,21.333,21.333c5.667,0,11.021-2.208,15.563-6.75l109.792-124.875c3.708-4.219,3.5-10.604-0.479-14.583     C376.896,212.49,370.542,212.281,366.292,215.99z" fill="#ffffff" data-original="#000000" style="" class=""/>
			<path d="M256,85.333c-141.167,0-256,114.844-256,256c0,26.479,4.104,52.688,12.167,77.917c1.417,4.417,5.521,7.417,10.167,7.417     h467.333c4.646,0,8.75-3,10.167-7.417C507.896,394.021,512,367.813,512,341.333C512,200.177,397.167,85.333,256,85.333z      M458.667,352h31.26c-0.824,18.04-3.237,35.947-8.177,53.333H30.25c-4.94-17.387-7.353-35.293-8.177-53.333h31.26     C59.229,352,64,347.229,64,341.333c0-5.896-4.771-10.667-10.667-10.667h-31.46c1.581-34.919,10.68-67.865,25.948-97.208     l27.324,15.781c1.688,0.969,3.521,1.427,5.333,1.427c3.667,0,7.271-1.906,9.229-5.333c2.958-5.104,1.208-11.625-3.896-14.573     l-27.263-15.746c18.323-28.539,42.602-52.816,71.142-71.138l15.746,27.28c1.958,3.417,5.563,5.333,9.229,5.333     c1.813,0,3.646-0.458,5.333-1.427c5.104-2.948,6.854-9.469,3.896-14.573l-15.777-27.332c29.345-15.27,62.293-24.37,97.215-25.951     v31.46c0,5.896,4.771,10.667,10.667,10.667s10.667-4.771,10.667-10.667v-31.46c34.922,1.581,67.87,10.681,97.215,25.951     l-15.777,27.332c-2.958,5.104-1.208,11.625,3.896,14.573c1.688,0.969,3.521,1.427,5.333,1.427c3.667,0,7.271-1.917,9.229-5.333     l15.746-27.28c28.54,18.322,52.819,42.599,71.142,71.138l-27.263,15.746c-5.104,2.948-6.854,9.469-3.896,14.573     c1.958,3.427,5.563,5.333,9.229,5.333c1.812,0,3.646-0.458,5.333-1.427l27.324-15.781c15.268,29.344,24.367,62.289,25.948,97.208     h-31.46c-5.896,0-10.667,4.771-10.667,10.667C448,347.229,452.771,352,458.667,352z" fill="#ffffff" data-original="#000000" style="" class=""/>
		</g>
	</g>
</g>
<g xmlns="http://www.w3.org/2000/svg">
</g>
<g xmlns="http://www.w3.org/2000/svg">
</g>
<g xmlns="http://www.w3.org/2000/svg">
</g>
<g xmlns="http://www.w3.org/2000/svg">
</g>
<g xmlns="http://www.w3.org/2000/svg">
</g>
<g xmlns="http://www.w3.org/2000/svg">
</g>
<g xmlns="http://www.w3.org/2000/svg">
</g>
<g xmlns="http://www.w3.org/2000/svg">
</g>
<g xmlns="http://www.w3.org/2000/svg">
</g>
<g xmlns="http://www.w3.org/2000/svg">
</g>
<g xmlns="http://www.w3.org/2000/svg">
</g>
<g xmlns="http://www.w3.org/2000/svg">
</g>
<g xmlns="http://www.w3.org/2000/svg">
</g>
<g xmlns="http://www.w3.org/2000/svg">
</g>
<g xmlns="http://www.w3.org/2000/svg">
</g>
</g></svg>
