<svg xmlns="http://www.w3.org/2000/svg" width="50" height="44" fill="none" viewBox="0 0 50 44">
    <path fill="#6C5EA2" d="M43.243 26.256c1.464-1.027 2.434-2.735 2.434-4.66 0-3.15-2.553-5.698-5.709-5.698-3.156 0-5.708 2.547-5.708 5.697 0 1.926.96 3.634 2.434 4.661-1.257.434-2.404 1.106-3.374 1.975-1.335-1.136-2.908-2.005-4.63-2.518 2.088-1.264 3.492-3.565 3.492-6.181 0-3.99-3.235-7.219-7.232-7.219-3.996 0-7.231 3.24-7.231 7.219 0 2.616 1.395 4.917 3.492 6.18-1.702.514-3.255 1.373-4.58 2.49-.97-.85-2.098-1.512-3.335-1.936 1.465-1.027 2.434-2.735 2.434-4.66 0-3.15-2.552-5.698-5.708-5.698s-5.709 2.547-5.709 5.697c0 1.926.96 3.634 2.434 4.66C2.82 27.62 0 31.342 0 35.716v.652c0 .02.02.04.04.04h12.099c-.07.543-.109 1.106-.109 1.669v.67c0 2.904 2.355 5.254 5.263 5.254h15.335c2.908 0 5.263-2.35 5.263-5.253v-.672c0-.562-.04-1.125-.109-1.668H49.96c.02 0 .04-.02.04-.04v-.651c-.02-4.385-2.83-8.107-6.757-9.46zm-7.4-4.67c0-2.272 1.85-4.118 4.125-4.118 2.276 0 4.126 1.846 4.126 4.117 0 2.242-1.81 4.069-4.047 4.118h-.158c-2.245-.04-4.046-1.866-4.046-4.118zm-16.561-2.054c0-3.11 2.532-5.639 5.649-5.639 3.116 0 5.649 2.528 5.649 5.639 0 3.001-2.365 5.46-5.323 5.628h-.653c-2.958-.168-5.322-2.627-5.322-5.628zM5.867 21.585c0-2.27 1.85-4.117 4.125-4.117s4.125 1.846 4.125 4.117c0 2.242-1.81 4.069-4.046 4.118h-.159c-2.235-.04-4.045-1.866-4.045-4.118zm6.549 13.232H1.603c.445-4.207 4.006-7.505 8.33-7.534h.118c2.058.01 3.938.77 5.392 2.004-1.424 1.54-2.483 3.437-3.027 5.53zm23.872 3.93c0 2.024-1.652 3.673-3.68 3.673H17.273c-2.028 0-3.68-1.649-3.68-3.673v-.672c0-6.132 4.907-11.148 11.011-11.325.11.01.228.01.337.01.108 0 .227 0 .336-.01 6.104.177 11.011 5.194 11.011 11.325v.672zm1.177-3.93c-.544-2.084-1.583-3.95-2.997-5.49 1.464-1.264 3.363-2.024 5.441-2.044h.119c4.323.03 7.885 3.327 8.33 7.534H37.465z"/>
    <path fill="#9E1068" d="M11.788 6.162c.232.175.356.455.333.751l-.139 1.788 1.124 1.36c.186.226.245.53.156.811-.088.283-.307.492-.585.56l-1.68.416-.9 1.53c-.148.254-.407.405-.693.405s-.546-.15-.695-.404l-.899-1.531-1.68-.415c-.278-.069-.497-.278-.585-.56-.088-.283-.03-.586.156-.811L6.825 8.7l-.139-1.788c-.023-.296.102-.576.333-.75.229-.174.524-.212.79-.097l1.595.69 1.594-.69c.264-.114.56-.078.79.096zm-2.072 1.75c-.099.044-.205.065-.312.065-.107 0-.214-.021-.313-.064l-1.215-.526.106 1.362c.018.223-.053.449-.193.618l-.857 1.037 1.28.317c.21.052.394.19.507.382l.685 1.166.685-1.167c.112-.19.297-.33.506-.381l1.28-.316-.856-1.038c-.14-.17-.21-.395-.194-.618l.106-1.362-1.215.526zM27.857.21c.3.225.46.589.43.972l-.18 2.313 1.455 1.761c.241.292.317.684.202 1.05-.114.364-.397.636-.757.724l-2.174.538-1.164 1.98c-.192.329-.528.524-.898.524s-.706-.195-.899-.523L22.71 7.568l-2.174-.537c-.36-.09-.643-.36-.758-.726-.114-.365-.039-.757.202-1.049l1.455-1.761-.18-2.313c-.03-.383.131-.747.43-.972.297-.224.679-.274 1.024-.125l2.063.893 2.063-.893c.341-.147.724-.101 1.023.125zm-2.682 2.265c-.128.056-.266.084-.404.084s-.276-.028-.405-.084l-1.572-.68.137 1.762c.023.29-.069.58-.25.8L21.572 5.7l1.658.41c.27.066.509.246.654.493l.887 1.51.887-1.51c.145-.247.383-.427.654-.494l1.657-.41-1.109-1.342c-.18-.22-.272-.51-.25-.8l.138-1.762-1.573.68zM43.996 11.282c-.088.282-.307.492-.585.56l-1.68.415-.9 1.531c-.148.254-.408.405-.693.405-.286 0-.546-.151-.695-.405l-.899-1.53-1.68-.416c-.278-.068-.497-.278-.585-.56-.088-.283-.03-.585.156-.81l1.124-1.362-.139-1.787c-.023-.296.102-.577.333-.751.229-.173.524-.212.79-.097l1.595.69 1.594-.69c.264-.114.56-.078.79.097.232.174.356.455.333.75l-.139 1.788 1.124 1.361c.186.225.245.528.156.81zm-4.145 1.885zm1.901-3.39c-.14-.17-.21-.395-.193-.618l.106-1.362-1.215.525c-.099.043-.206.065-.312.065-.107 0-.214-.022-.313-.065l-1.215-.525.106 1.361c.017.223-.053.449-.193.619l-.857 1.037 1.28.316c.21.052.394.191.507.382l.685 1.167.685-1.167c.112-.19.297-.33.506-.382l1.28-.316-.857-1.038z"/>
</svg>
