<svg xmlns="http://www.w3.org/2000/svg" width="16" height="16" fill="none" viewBox="0 0 16 16">
    <g fill="#000" fill-opacity=".65" clip-path="url(#clip0)">
        <path d="M13.6.033H2.4C1.075.035.001 1.108 0 2.433v8.534c.001 1.324 1.075 2.398 2.4 2.4h.673l-.92 2.3c-.041.103-.015.219.065.293.08.075.198.093.297.046l5.546-2.64H13.6c1.325 0 2.399-1.075 2.4-2.4V2.434c-.001-1.325-1.075-2.398-2.4-2.4zm1.867 10.934c-.002 1.03-.837 1.865-1.867 1.866H8c-.04 0-.079.01-.115.027l-4.984 2.373.813-2.034c.033-.082.023-.175-.026-.249-.05-.073-.133-.117-.221-.117H2.4c-1.03-.001-1.865-.836-1.867-1.867V2.434C.535 1.403 1.37.568 2.4.567h11.2c1.03 0 1.866.836 1.867 1.866v8.534z"/>
        <path d="M12.103 4.834h-2.36c-.115 0-.218-.075-.253-.184l-.73-2.245c-.106-.33-.414-.553-.76-.553-.347 0-.655.223-.762.553L6.51 4.65c-.036.11-.138.184-.253.184h-2.36c-.347 0-.654.223-.761.552-.107.33.01.691.29.895l1.91 1.386c.093.068.133.189.097.299l-.73 2.244c-.107.33.01.69.291.895.28.203.66.203.94 0l1.91-1.387c.093-.068.22-.068.313 0l1.91 1.387c.278.207.66.207.94 0 .283-.202.402-.565.29-.895l-.729-2.244c-.036-.11.004-.23.097-.299l1.91-1.386c.28-.204.397-.565.29-.895-.107-.33-.415-.553-.761-.552zm.157 1.016l-1.91 1.386c-.28.203-.398.565-.29.894l.729 2.245c.036.11-.003.23-.096.298-.094.069-.22.069-.314 0l-1.91-1.386c-.28-.205-.66-.205-.94 0L5.62 10.674c-.094.067-.22.067-.314 0-.093-.069-.132-.189-.096-.299l.729-2.244c.108-.33-.01-.69-.29-.894L3.738 5.85c-.094-.068-.134-.188-.098-.299.036-.11.139-.185.255-.184h2.36c.347 0 .654-.223.76-.553l.73-2.244c.036-.11.138-.184.253-.184.115 0 .217.074.254.184l.729 2.244c.106.33.414.554.761.553h2.36c.116 0 .218.074.254.184.036.11-.004.23-.097.299z"/>
    </g>
    <defs>
        <clipPath id="clip0">
            <path fill="#fff" d="M0 0H16V16H0z"/>
        </clipPath>
    </defs>
</svg>
